# vtk DataFile Version 3.0
vtk output
ASCII
DATASET UNSTRUCTURED_GRID
POINTS 28 float
0.127224 0.100719 0.30093 0.129338 0.1139 0.316 0.126432 0.119034 0.313053 
0.117855 0.112059 0.302339 0.120034 0.108921 0.292602 0.135298 0.103657 0.297114 
0.126443 0.108127 0.300025 0.128318 0.101117 0.287627 0.127647 0.100873 0.320812 
0.140477 0.105542 0.336701 0.13714 0.114309 0.326783 0.127918 0.11255 0.338145 
0.125274 0.100009 0.34284 0.115683 0.113775 0.319634 0.112801 0.115402 0.346096 
0.128475 0.113945 0.349993 0.140508 0.105554 0.36054 0.123516 0.099369 0.36054 
0.137921 0.104612 0.309857 0.143394 0.106604 0.319909 0.130569 0.113444 0.30801 
0.139527 0.091825 0.307753 0.134786 0.088779 0.36054 0.136269 0.091331 0.336086 
0.155335 0.094221 0.337768 0.147036 0.080179 0.351682 0.162483 0.090624 0.36054 
0.149425 0.078217 0.36054 
CELLS 36 180
4 0 1 2 3 
4 4 0 5 6 
4 4 5 0 7 
4 8 9 10 11 
4 8 12 9 11 
4 8 13 12 11 
4 8 1 13 11 
4 13 11 14 12 
4 8 10 1 11 
4 15 12 11 9 
4 15 11 12 14 
4 16 15 9 12 
4 16 15 12 17 
4 12 15 14 17 
4 18 1 8 19 
4 9 10 19 8 
4 8 1 10 19 
4 0 8 1 3 
4 3 1 13 8 
4 0 1 8 18 
4 0 2 20 3 
4 0 4 3 6 
4 20 0 3 6 
4 18 0 21 8 
4 19 21 8 18 
4 16 12 22 17 
4 22 16 23 12 
4 24 22 23 25 
4 26 24 22 16 
4 27 25 22 26 
4 26 22 24 25 
4 12 23 9 16 
4 24 23 22 16 
4 23 19 21 8 
4 19 23 9 8 
4 8 23 9 12 

CELL_TYPES 36
10
10
10
10
10
10
10
10
10
10
10
10
10
10
10
10
10
10
10
10
10
10
10
10
10
10
10
10
10
10
10
10
10
10
10
10

CELL_DATA 36
FIELD FieldData 1
vtkOriginalCellIds 1 36 vtkIdType
55792 56387 56388 56513 56514 56515 56516 56519 56520 
56525 56526 56530 56531 56532 56590 56594 56595 56601 
56605 56606 56608 56631 56632 59232 59233 59269 59270 
59275 59276 59277 59279 59280 59281 59291 59294 59303 

POINT_DATA 28
SCALARS density float
LOOKUP_TABLE default
0 0 0 0 0 0 0 0 0 
0 0 0 0 0 0 0 0 0 
0 0 0 0 0 0 0 0 0 
0 
VECTORS current-density float
1.7181e-05 -1.90426e-05 -1.12687e-05 1.41849e-05 -1.77825e-05 -5.4897e-06 7.5759e-06 -1.03703e-05 -3.6936e-06 
1.60846e-05 -2.15476e-05 -9.3766e-06 1.87685e-05 -2.12621e-05 -1.37014e-05 1.16875e-05 -1.30237e-05 -1.02865e-05 
1.62863e-05 -2.13573e-05 -1.19882e-05 2.09651e-05 -2.24499e-05 -2.21529e-05 1.61988e-05 -1.63929e-05 -6.6775e-06 
1.50833e-05 -1.56087e-05 -3.7708e-06 1.58562e-05 -1.9351e-05 -4.9986e-06 1.39983e-05 -1.73713e-05 -2.7487e-06 
1.36519e-05 -1.47483e-05 -1.8361e-06 1.41849e-05 -1.99487e-05 -4.3476e-06 1.14324e-05 -1.76531e-05 -4.77e-07 
1.24184e-05 -1.68574e-05 -7.774e-07 1.42001e-05 -1.43676e-05 -1.318e-06 1.25174e-05 -1.50491e-05 -3.106e-07 
1.17598e-05 -1.19578e-05 -7.2599e-06 1.68726e-05 -1.66176e-05 -9.0835e-06 6.8412e-06 -9.331e-06 -4.4846e-06 
1.85972e-05 -1.55135e-05 -1.41773e-05 1.37166e-05 -1.13411e-05 -8.638e-07 1.5327e-05 -1.26088e-05 -4.793e-06 
1.5209e-05 -1.21101e-05 -4.8615e-06 1.39869e-05 -8.8513e-06 -2.1776e-06 1.43867e-05 -1.02142e-05 -2.0253e-06 
1.35529e-05 -8.3982e-06 7e-10 
FIELD FieldData 1
vtkOriginalPointIds 1 28 vtkIdType
14058 14018 14106 14108 14109 14020 14234 14059 14057 
14143 14223 14230 14056 14115 14116 14226 14051 14016 
14019 14146 14105 15015 15001 15017 15024 15018 14574 
15002 
