# vtk DataFile Version 3.0
cold (room temperature) wall    
ASCII
DATASET UNSTRUCTURED_GRID
POINTS     19 float
4173. 0. -2512. 
4092. 0. -1507. 
4062. 0. -492. 
4040. 0. 523. 
4040. 0. 1538. 
4070. 0. 2553. 
4120. 0. 3568. 
4320. 0. 4324. 
4897. 0. 4696. 
5746. 0. 4517. 
6578. 0. 3879. 
7390. 0. 3165. 
7894. 0. 2452. 
8259. 0. 1670. 
8383. 0. 623. 
8295. 0. -430. 
7888. 0. -1349. 
7273. 0. -2263. 
6258. 0. -3501. 

CELLS 18 54
2  0 1
2  1 2
2  2 3
2  3 4
2  4 5
2  5 6
2  6 7
2  7 8
2  8 9
2  9 10
2 10 11
2 11 12
2 12 13
2 13 14
2 14 15
2 15 16
2 16 17
2 17 18

CELL_TYPES 18
3
3
3
3
3
3
3
3
3
3
3
3
3
3
3
3
3
3
